<?xml version="1.0" encoding="UTF-8" standalone="no"?>
<!DOCTYPE svg PUBLIC "-//W3C//DTD SVG 1.1//EN" "http://www.w3.org/Graphics/SVG/1.1/DTD/svg11.dtd">
<!-- Created with Vectornator (http://vectornator.io/) -->
<svg height="100%" stroke-miterlimit="10" style="fill-rule:nonzero;clip-rule:evenodd;stroke-linecap:round;stroke-linejoin:round;" version="1.1" viewBox="0 0 1024 1024" width="100%" xml:space="preserve" xmlns="http://www.w3.org/2000/svg" xmlns:xlink="http://www.w3.org/1999/xlink">
<defs/>
<clipPath id="ArtboardFrame">
<rect height="1024" width="1024" x="0" y="0"/>
</clipPath>
<g clip-path="url(#ArtboardFrame)" id="レイヤー-1">
<path d="M-1342.15 421.871" fill="none" opacity="1" stroke="#ff8c00" stroke-linecap="butt" stroke-linejoin="round" stroke-width="9"/>
<path d="M1306.78-132.415C1306.78-132.415 1265.14 122.358 1327.29 307.974C1389.44 493.59 1555.12 519.128 1555.12 519.128M1636.52 846.295C1636.52 846.295 1678.16 591.521 1616.01 405.906C1553.86 220.29 1388.18 194.752 1388.18 194.752" fill="none" opacity="1" stroke="#ff8c00" stroke-linecap="butt" stroke-linejoin="round" stroke-width="9"/>
<path d="M1762.5-141.531C1762.5-141.531 1745.22-88.9006 1747.21 5.21949C1749.2 99.3395 1752.36 168.714 1770.46 234.95C1797.07 332.327 1908.83 378.773 1908.83 378.773M1619.58 908.888C1619.58 908.888 1661.22 654.115 1599.07 468.499C1536.92 282.884 1371.23 257.345 1371.23 257.345" fill="none" opacity="1" stroke="#ff8c00" stroke-linecap="butt" stroke-linejoin="round" stroke-width="9"/>
<path d="M1412.34-261.932C1412.34-261.932 1408.47-122.462 1408.47-110.64C1408.47-98.8184 1383.74 49.3513 1519.22 149.042C1658.85 251.781 1907.79 456.726 2002.6 549.775C2108.64 653.853 2164.32 814.984 2164.7 928.988C2164.93 995.403 2168.03 1092.95 2168.03 1092.95" fill="none" opacity="1" stroke="#ff8c00" stroke-linecap="butt" stroke-linejoin="round" stroke-width="9"/>
<path d="M143.392-73.0502C143.392-73.0502 101.635 229.072 188.996 356.185C332.795 565.416 557.807 456.262 675.806 830.967C715.124 955.824 660.662 1285.58 660.662 1285.58" fill="none" opacity="1" stroke="#ff8c00" stroke-linecap="butt" stroke-linejoin="round" stroke-width="300"/>
<path d="M873.43 1105.43C873.43 1105.43 906.679 806.235 821.859 678.246C682.245 467.574 472.555 571.449 353.91 196.966C314.376 72.1843 359.033-254.196 359.033-254.196" fill="none" opacity="1" stroke="#ff8c00" stroke-linecap="butt" stroke-linejoin="round" stroke-width="300"/>
</g>
</svg>
