<?xml version="1.0" encoding="UTF-8" standalone="no"?>
<!DOCTYPE svg PUBLIC "-//W3C//DTD SVG 1.1//EN" "http://www.w3.org/Graphics/SVG/1.1/DTD/svg11.dtd">
<!-- Created with Vectornator (http://vectornator.io/) -->
<svg height="100%" stroke-miterlimit="10" style="fill-rule:nonzero;clip-rule:evenodd;stroke-linecap:round;stroke-linejoin:round;" version="1.1" viewBox="0 0 1024 1024" width="100%" xml:space="preserve" xmlns="http://www.w3.org/2000/svg" xmlns:xlink="http://www.w3.org/1999/xlink">
<defs>
<path d="M9.76996e-15 512C9.76996e-15 229.23 229.23 0 512 0C794.77 0 1024 229.23 1024 512C1024 794.77 794.77 1024 512 1024C229.23 1024 9.76996e-15 794.77 9.76996e-15 512Z" id="Fill"/>
<path d="M34.6689 512C34.6689 248.377 248.377 34.6689 512 34.6689C775.623 34.6689 989.331 248.377 989.331 512C989.331 775.623 775.623 989.331 512 989.331C248.377 989.331 34.6689 775.623 34.6689 512Z" id="Fill_2"/>
</defs>
<g id="circle">
<g opacity="1">
<use fill="#ffffff" fill-rule="nonzero" stroke="none" xlink:href="#Fill"/>
<mask height="1024" id="StrokeMask" maskUnits="userSpaceOnUse" width="1024" x="9.76996e-15" y="0">
<rect fill="#000000" height="1024" stroke="none" width="1024" x="9.76996e-15" y="0"/>
<use fill="#ffffff" fill-rule="evenodd" stroke="none" xlink:href="#Fill"/>
</mask>
<use fill="none" mask="url(#StrokeMask)" stroke="#ffd700" stroke-linecap="butt" stroke-linejoin="round" stroke-width="38" xlink:href="#Fill"/>
</g>
</g>
<g id="circleinsede">
<g opacity="1">
<mask height="954.662" id="StrokeMask_2" maskUnits="userSpaceOnUse" width="954.662" x="34.6689" y="34.6689">
<rect fill="#000000" height="954.662" stroke="none" width="954.662" x="34.6689" y="34.6689"/>
<use fill="#ffffff" fill-rule="evenodd" stroke="none" xlink:href="#Fill_2"/>
</mask>
<use fill="none" mask="url(#StrokeMask_2)" stroke="#ffd700" stroke-linecap="butt" stroke-linejoin="round" stroke-width="18" xlink:href="#Fill_2"/>
</g>
</g>
</svg>
